<svg xmlns="http://www.w3.org/2000/svg" viewBox="0 0 64 64" width="64" height="64">
  <defs>
    <linearGradient id="gold" x1="0%" y1="0%" x2="100%" y2="100%">
      <stop offset="0%" stop-color="#fae4a8"/>
      <stop offset="45%" stop-color="#d49419"/>
      <stop offset="100%" stop-color="#9a6008"/>
    </linearGradient>
    <linearGradient id="obsidian" x1="0%" y1="0%" x2="100%" y2="100%">
      <stop offset="0%" stop-color="#142c22"/>
      <stop offset="60%" stop-color="#0e1f18"/>
      <stop offset="100%" stop-color="#060f0b"/>
    </linearGradient>
  </defs>

  <!-- Base Circular Luxury Plate -->
  <circle cx="32" cy="32" r="30.5" fill="url(#obsidian)" stroke="url(#gold)" stroke-width="2"/>
  <circle cx="32" cy="32" r="27.5" fill="none" stroke="#d49419" stroke-width="0.8" stroke-dasharray="1.5 2.5" opacity="0.6"/>

  <!-- Gourmet Flame Coronet -->
  <path d="M32 10 C30.5 13 28 15 28 17.5 C28 19.5 29.5 21 32 21 C34.5 21 36 19.5 36 17.5 C36 15 33.5 13 32 10 Z" fill="url(#gold)"/>
  <circle cx="32" cy="18" r="1.5" fill="#fae4a8"/>

  <!-- Vector Monogram "D" -->
  <path d="M 18 24 L 27 24 C 32.5 24 35 27.5 35 32 C 35 36.5 32.5 40 27 40 L 18 40 Z M 22 27.5 L 22 36.5 L 26.5 36.5 C 29.5 36.5 31 34.8 31 32 C 31 29.2 29.5 27.5 26.5 27.5 Z" fill="url(#gold)"/>

  <!-- Vector Monogram "R" -->
  <path d="M 33 24 L 41.5 24 C 45 24 47 26 47 29 C 47 31.2 45.4 32.8 43 33.3 L 47.5 40 L 43 40 L 39 34 L 36.5 34 L 36.5 40 L 33 40 Z M 36.5 27.5 L 36.5 31 L 41 31 C 42.5 31 43.5 30.2 43.5 29.2 C 43.5 28.2 42.5 27.5 41 27.5 Z" fill="url(#gold)"/>

  <!-- Underline Curvature & Center Diamond -->
  <path d="M 21 46 C 26 48 38 48 43 46" fill="none" stroke="url(#gold)" stroke-width="1.2" stroke-linecap="round"/>
  <polygon points="32,45 33.5,47 32,49 30.5,47" fill="#fae4a8"/>
</svg>